<svg width="1245" height="249" viewBox="0 0 1245 249" fill="none" xmlns="http://www.w3.org/2000/svg">
<path d="M124.5 0L152.452 86.0274L242.907 86.0274L169.727 139.195L197.679 225.223L124.5 172.055L51.3207 225.223L79.2727 139.195L6.09346 86.0274L96.548 86.0274L124.5 0Z" fill="#F8CD5F"/>
<path d="M373.5 0L401.452 86.0274L491.907 86.0274L418.727 139.195L446.679 225.223L373.5 172.055L300.321 225.223L328.273 139.195L255.093 86.0274L345.548 86.0274L373.5 0Z" fill="#F8CD5F"/>
<path d="M622.5 0L650.452 86.0274L740.907 86.0274L667.727 139.195L695.679 225.223L622.5 172.055L549.321 225.223L577.273 139.195L504.093 86.0274L594.548 86.0274L622.5 0Z" fill="#F8CD5F"/>
<path d="M871.5 0L899.452 86.0274L989.907 86.0274L916.727 139.195L944.679 225.223L871.5 172.055L798.321 225.223L826.273 139.195L753.093 86.0274L843.548 86.0274L871.5 0Z" fill="#F8CD5F"/>
<path d="M1120.5 0L1148.45 86.0274L1238.91 86.0274L1165.73 139.195L1193.68 225.223L1120.5 172.055L1047.32 225.223L1075.27 139.195L1002.09 86.0274L1092.55 86.0274L1120.5 0Z" fill="#F8CD5F"/>
</svg>
